<?xml version="1.0" standalone="no"?>
<!DOCTYPE svg PUBLIC "-//W3C//DTD SVG 20010904//EN"
 "http://www.w3.org/TR/2001/REC-SVG-20010904/DTD/svg10.dtd">
<svg version="1.0" xmlns="http://www.w3.org/2000/svg"
 width="300.000000pt" height="300.000000pt" viewBox="0 0 300.000000 300.000000"
 preserveAspectRatio="xMidYMid meet">
<metadata>
Created by potrace 1.11, written by Peter Selinger 2001-2013
</metadata>
<g transform="translate(0.000000,300.000000) scale(0.100000,-0.100000)"
fill="#000000" stroke="none">
<path d="M0 1500 l0 -1500 1500 0 1500 0 0 1500 0 1500 -1500 0 -1500 0 0
-1500z m2650 0 l0 -1150 -1150 0 -1150 0 0 1150 0 1150 1150 0 1150 0 0 -1150z"/>
<path d="M624 2207 c-2 -7 -3 -62 -2 -123 l3 -109 895 0 895 0 0 120 0 120
-893 3 c-732 2 -893 0 -898 -11z"/>
<path d="M631 1826 c-8 -9 -11 -101 -9 -317 l3 -304 23 -3 c19 -3 53 25 168
140 80 78 148 154 151 167 5 20 -17 45 -148 177 -85 85 -159 154 -165 154 -6
0 -17 -6 -23 -14z"/>
<path d="M1272 1828 c-16 -16 -16 -220 0 -236 17 -17 1119 -17 1136 0 16 16
16 220 0 236 -17 17 -1119 17 -1136 0z"/>
<path d="M1272 1438 c-14 -14 -17 -205 -4 -226 7 -10 129 -12 578 -10 l569 3
0 120 0 120 -565 3 c-432 2 -569 -1 -578 -10z"/>
<path d="M632 1058 c-16 -16 -16 -220 0 -236 17 -17 1759 -17 1776 0 16 16 16
220 0 236 -17 17 -1759 17 -1776 0z"/>
</g>
</svg>
